PathFileType	4	(X/Y/Z)	s01c0403.trc
DataRate	CameraRate	NumFrames	NumMarkers	Units	OrigDataRate	OrigDataStartFrame	OrigNumFrames
200	200	6	47	mm	200	1250	2000
Frame#	Time	racr			lacr			c7			jug			rlel			rdr			llel			ldr			lic			ric			lasi			rasi			rpsi			lpsi			rgt			lgt			rth1			rth2			rth3			rth4			rlfc			rsh1			rsh2			rsh3			rsh4			rlmal			rmmal			rcal			rtoe			rmt5			lth1			lth2			lth4			lth3			llfc			lsh1			lsh2			lsh3			lsh4			llmal			lmmal			lcal			ltoe			lmt5			SBIKE			LBIKE			RBIKE			
		X1	Y1	Z1	X2	Y2	Z2	X3	Y3	Z3	X4	Y4	Z4	X5	Y5	Z5	X6	Y6	Z6	X7	Y7	Z7	X8	Y8	Z8	X9	Y9	Z9	X10	Y10	Z10	X11	Y11	Z11	X12	Y12	Z12	X13	Y13	Z13	X14	Y14	Z14	X15	Y15	Z15	X16	Y16	Z16	X17	Y17	Z17	X18	Y18	Z18	X19	Y19	Z19	X20	Y20	Z20	X21	Y21	Z21	X22	Y22	Z22	X23	Y23	Z23	X24	Y24	Z24	X25	Y25	Z25	X26	Y26	Z26	X27	Y27	Z27	X28	Y28	Z28	X29	Y29	Z29	X30	Y30	Z30	X31	Y31	Z31	X32	Y32	Z32	X33	Y33	Z33	X34	Y34	Z34	X35	Y35	Z35	X36	Y36	Z36	X37	Y37	Z37	X38	Y38	Z38	X39	Y39	Z39	X40	Y40	Z40	X41	Y41	Z41	X42	Y42	Z42	X43	Y43	Z43	X44	Y44	Z44	X45	Y45	Z45	X46	Y46	Z46	X47	Y47	Z47	
1250	6.2500	716.268570	1338.613500	-74.879079	728.585019	1286.405614	-448.839595	710.560039	1417.512612	-259.680755	697.632038	1252.286289	-248.490089	581.237622	1090.850236	41.061723	706.238473	896.290078	-55.952024	555.759496	1074.154812	-574.288121	683.572236	891.996996	-476.024297	352.033473	1200.675696	-436.888119	322.358854	1233.409971	-118.127623	341.145591	1152.394157	-418.828396	353.911631	1186.424612	-148.393214	201.643359	1265.454598	-231.667637	204.816326	1258.705265	-338.131565	283.944814	1133.868544	-80.802750	250.706697	1069.009178	-454.711175	382.495237	1054.464899	-67.333173	458.547615	1020.461240	-68.699844	537.563830	977.104716	-77.612479	483.591900	1068.333804	-87.249030	606.377424	899.158658	-101.114100	528.787246	826.700871	-74.665162	468.991326	765.349133	-75.680004	400.387201	709.661412	-87.718326	502.659793	730.993540	-111.317139	288.605777	626.250495	-108.085252	329.980427	614.800569	-184.849817	232.639597	625.019212	-161.916473	431.161053	440.740243	-147.682325	332.288555	483.857923	-77.739942	249.751762	951.244655	-461.053804	278.923008	866.256175	-462.441603	328.417405	882.077395	-468.319053	297.697351	784.627220	-447.365353	317.587919	659.379767	-436.303567	235.754114	586.160886	-460.654432	199.168135	508.356393	-450.535097	161.697028	432.400403	-435.619490	254.018076	485.760159	-432.513555	113.548113	316.640729	-419.413947	78.993392	282.541058	-384.217863	66.506121	318.186585	-376.547480	266.168909	126.104191	-384.303358	169.320786	173.845298	-448.697200	-231.625865	890.433620	-256.948135	-24.597526	80.504216	-458.241500	-24.567258	80.457331	-58.041422	
1251	6.2550	716.129213	1336.015628	-73.458031	729.070435	1286.773847	-446.954359	710.717283	1416.780118	-257.631507	696.683645	1251.364739	-247.216797	579.328518	1089.492911	42.311053	705.754087	896.426389	-56.001050	557.398182	1074.419387	-572.941656	684.254941	891.874844	-475.381277	351.742192	1202.832821	-436.259954	321.421340	1234.891175	-117.386356	341.213671	1154.170544	-418.174749	354.213909	1188.493329	-146.567264	201.674373	1266.181701	-231.457771	204.613711	1259.934466	-337.714860	283.528134	1134.820558	-81.136159	251.675871	1070.284202	-454.557896	381.983859	1054.228784	-67.847426	457.727379	1019.424622	-69.351019	536.316529	975.545081	-78.309144	483.190714	1067.275542	-87.840305	604.333222	895.835182	-102.556644	527.744396	822.472466	-76.173863	468.217490	760.849743	-76.785146	399.874704	704.844576	-87.820834	502.071184	726.355725	-112.083433	290.079752	618.560369	-107.178407	331.109097	609.144573	-184.829595	232.815238	615.275737	-161.131383	440.756563	440.627624	-147.092399	339.632274	478.553487	-77.173812	252.830649	951.897940	-460.393147	283.262704	867.459109	-461.120108	332.532024	884.079440	-466.827530	303.525239	786.162839	-446.013781	322.536245	661.086455	-435.119517	238.774518	589.754705	-459.618691	200.147310	512.930958	-449.432084	160.678162	438.155186	-434.623891	254.330590	488.910739	-431.225728	109.033928	323.928569	-418.832860	82.081134	291.384198	-376.772960	61.792351	326.169807	-375.448009	256.586640	128.982252	-384.329484	161.194635	179.686493	-448.100747	-231.544544	890.535584	-256.650675	-24.595008	80.640567	-458.201682	-24.548340	80.504634	-57.987891	
1252	6.2600	715.664108	1333.106655	-73.423597	729.502415	1286.995964	-445.145606	710.854405	1416.111007	-255.885805	695.707583	1250.387688	-246.207633	577.856597	1087.981094	43.616667	705.228283	896.467205	-55.958057	558.877357	1074.597814	-571.476649	684.798071	891.808117	-474.903820	351.289109	1205.200135	-435.927329	320.896526	1236.274276	-116.679116	341.239134	1156.190829	-417.725431	353.768613	1188.285970	-146.231062	201.791634	1266.750250	-231.105755	204.356400	1261.054257	-337.123101	283.175818	1135.458387	-81.467102	252.390959	1071.670875	-454.345576	381.568688	1053.589593	-68.118936	456.925442	1017.973147	-69.964059	535.070122	973.237715	-79.151555	482.795635	1065.528125	-88.285394	603.273083	891.622744	-104.138189	525.892717	817.455903	-77.683720	466.879990	755.412592	-77.789751	399.041376	698.672233	-88.265864	500.980618	720.789397	-112.803376	291.396278	609.826418	-106.616603	332.042820	602.317180	-184.989300	233.252585	604.359747	-160.106603	449.396900	439.862576	-147.009667	346.753491	472.554690	-76.562478	256.152880	952.342760	-459.633489	288.140972	868.639176	-459.796542	337.182410	886.181356	-465.021120	310.098721	787.753072	-444.759398	328.332691	662.785647	-433.927758	242.745708	593.356096	-458.697753	201.994628	517.800243	-448.535507	160.384049	444.098030	-433.866584	255.450674	492.223579	-429.928622	104.638722	332.268757	-419.457876	91.816186	304.377945	-368.621921	57.722738	334.572936	-374.426859	247.332095	132.347460	-384.289106	153.530409	185.910518	-447.403328	-231.430386	890.637703	-256.381588	-24.542017	80.844608	-458.187316	-24.509875	80.538273	-57.947065	
1253	6.2650	715.978005	1330.564380	-70.821465	729.910477	1287.120210	-443.499849	711.000091	1415.366197	-254.218460	694.817310	1249.480933	-245.340649	575.934369	1086.292283	44.961437	704.704052	896.472120	-55.820584	560.012111	1074.763832	-570.135025	685.158684	891.755719	-474.632275	350.678648	1207.669910	-435.947815	320.616967	1237.258361	-115.981193	341.140067	1158.226919	-417.397767	354.185256	1189.785214	-144.496103	201.930664	1267.273826	-230.541930	203.971052	1262.072972	-336.339705	282.818189	1135.949540	-81.805412	252.810394	1073.072869	-454.126584	381.233605	1052.416823	-68.416987	456.099895	1015.911797	-70.520715	533.810027	970.264271	-80.102753	482.512356	1063.216313	-88.673336	602.154014	886.708723	-105.947950	523.527628	811.692662	-79.120554	465.232444	748.965315	-78.723615	397.951875	691.399655	-88.884904	499.741996	714.459040	-113.426613	292.399665	600.381336	-106.407208	332.883286	594.381687	-185.347782	233.794169	592.468784	-159.452144	457.499755	438.408759	-146.855284	353.615841	465.721531	-76.032144	259.617945	952.691603	-458.959908	293.427868	869.798511	-458.528248	342.121408	888.399142	-463.071531	317.371896	789.530462	-443.636752	334.812756	664.422960	-432.645556	247.410298	597.140974	-457.889986	204.588962	522.756222	-447.923812	160.843429	450.280028	-433.391654	257.143248	495.795074	-428.680561	102.010442	339.563056	-417.795297	101.560738	317.382481	-361.705318	54.235250	343.567256	-373.523375	238.422304	136.032358	-384.305902	146.213823	192.588117	-446.812300	-231.246829	890.760257	-256.018004	-24.483340	81.041100	-458.114159	-24.460825	80.562919	-57.922725	
1254	6.2700	715.553129	1327.417790	-70.819770	730.302955	1287.184698	-441.988683	711.110604	1414.727335	-252.769220	693.960062	1248.339568	-244.626034	573.805058	1084.486034	46.279960	704.206452	896.365255	-55.621741	560.883028	1074.923489	-568.999168	685.404569	891.413834	-474.635095	349.808690	1210.433771	-436.260203	320.517351	1238.021924	-115.443327	340.970433	1160.292332	-417.080102	353.917728	1188.806435	-144.447063	202.219720	1267.690799	-229.828459	203.733598	1262.846878	-335.319810	282.620712	1136.071990	-82.123376	253.209545	1074.359075	-453.914537	380.933639	1050.785765	-68.667723	455.370746	1013.245590	-71.147674	532.374952	966.670884	-81.093191	482.969713	1060.211914	-90.015198	599.759612	880.600146	-107.122711	520.841583	804.914107	-80.109672	463.341438	741.546794	-79.605431	396.784949	683.090223	-89.521987	498.276467	707.216728	-114.103972	293.333423	590.104983	-106.444066	333.735888	585.446538	-185.906554	235.027511	579.217313	-159.427204	464.863739	436.095998	-146.336518	359.798514	458.369011	-75.525517	263.207993	952.878926	-458.314163	299.012852	870.942370	-457.346668	347.381466	890.644355	-460.928068	324.898851	791.242001	-442.526229	341.791623	666.291373	-431.661363	252.684691	600.924392	-457.299061	207.811462	527.711074	-447.545075	161.957567	456.524921	-433.130796	259.367771	499.456956	-427.414131	99.423988	348.344391	-417.821445	111.454411	329.990860	-354.840542	51.341361	352.838944	-372.767535	229.893651	140.279439	-384.391110	139.290664	199.713342	-446.335141	-231.039476	890.873135	-255.644959	-24.446334	81.209852	-458.079251	-24.414584	80.581510	-57.868642	
1255	6.2750	715.552398	1324.630288	-69.634427	730.663708	1287.253830	-440.668593	711.192058	1414.031504	-251.354259	693.211277	1247.524604	-244.117353	571.664481	1082.661926	47.607326	703.655781	896.243702	-55.331280	561.455240	1075.100803	-567.969968	685.417109	891.309540	-474.767630	348.859360	1213.116794	-436.792546	320.522209	1238.351712	-114.873180	340.757936	1162.186763	-416.911721	354.034125	1188.691452	-143.526386	202.567282	1267.960103	-229.021824	203.879224	1263.383120	-334.209708	282.558791	1135.776679	-82.342968	253.607710	1075.430572	-453.739458	380.684490	1048.653937	-68.833054	454.467204	1010.031672	-71.695926	530.767113	962.276951	-82.078094	482.580940	1056.679830	-90.498567	597.072318	874.104023	-108.556682	517.978916	797.237664	-80.709065	461.405150	733.079571	-80.173795	395.655497	673.597519	-90.042328	497.007312	698.996702	-114.933754	294.219125	579.047663	-106.706808	334.691559	575.640574	-186.647019	236.068930	565.894141	-159.700997	471.732567	432.859836	-145.750619	365.524906	450.401444	-75.053588	267.027871	952.895339	-457.701448	304.803445	872.075607	-456.273790	352.781430	893.020575	-458.628524	333.009432	793.554501	-442.117414	349.046478	668.034091	-430.519864	258.609392	604.795700	-456.899748	211.480454	532.737987	-447.334669	163.552806	462.829789	-432.859649	261.944211	503.273012	-426.224319	96.612855	356.951414	-418.086843	121.636824	341.796050	-346.844893	48.883258	362.498826	-372.246864	220.659461	144.083281	-383.043873	132.715521	206.889479	-445.702266	-230.870653	890.952923	-255.304845	-24.393423	81.346791	-458.013931	-24.376130	80.573329	-57.851297	
